<svg width="40" height="40" viewBox="0 0 40 40" fill="none" xmlns="http://www.w3.org/2000/svg">
<g id="icon/&#232;&#175;&#132;&#229;&#174;&#161;/&#231;&#168;&#139;&#229;&#186;&#143;&#232;&#175;&#132;&#229;&#174;&#161;">
<path id="Vector" d="M12.1053 35C8.18114 35 5 31.8189 5 27.8947C5 23.9706 8.18114 20.7895 12.1053 20.7895C16.0294 20.7895 19.2105 23.9706 19.2105 27.8947C19.2105 31.8189 16.0294 35 12.1053 35ZM27.8947 19.2105C23.9706 19.2105 20.7895 16.0294 20.7895 12.1053C20.7895 8.18114 23.9706 5 27.8947 5C31.8189 5 35 8.18114 35 12.1053C35 16.0294 31.8189 19.2105 27.8947 19.2105ZM5.78947 13.6842C5.78947 9.32407 9.32407 5.78947 13.6842 5.78947H18.4211V8.94737H13.6842C11.0681 8.94737 8.94737 11.0681 8.94737 13.6842V18.4211H5.78947V13.6842ZM31.0526 21.5789V26.3158C31.0526 28.9319 28.9319 31.0526 26.3158 31.0526H21.5789V34.2105H26.3158C30.6759 34.2105 34.2105 30.6759 34.2105 26.3158V21.5789H31.0526Z" fill="#5B65F5"/>
</g>
</svg>
