<svg width="40" height="40" viewBox="0 0 40 40" fill="none" xmlns="http://www.w3.org/2000/svg">
<g id="icon/&#232;&#175;&#132;&#229;&#174;&#161;/&#232;&#191;&#155;&#233;&#152;&#182;&#232;&#175;&#132;&#229;&#174;&#161;">
<path id="Vector" d="M14.1639 33.3413H25.8367C24.739 35.9737 22.6327 38.08 20.0003 39.1777C17.368 38.08 15.2616 35.9737 14.1639 33.3413ZM30.0003 24.6825L33.3337 28.463V31.6747H6.66699V28.463L10.0003 24.6825V15.008C10.0003 9.20258 14.1744 4.26373 20.0003 2.43335C25.8263 4.26373 30.0003 9.20258 30.0003 15.008V24.6825ZM20.0003 18.3413C21.8413 18.3413 23.3337 16.849 23.3337 15.008C23.3337 13.1671 21.8413 11.6747 20.0003 11.6747C18.1593 11.6747 16.667 13.1671 16.667 15.008C16.667 16.849 18.1593 18.3413 20.0003 18.3413Z" fill="#7024F2"/>
</g>
</svg>
