<svg width="40" height="40" viewBox="0 0 40 40" fill="none" xmlns="http://www.w3.org/2000/svg">
<g id="icon/&#232;&#175;&#132;&#229;&#174;&#161;/&#230;&#166;&#130;&#229;&#191;&#181;&#232;&#175;&#132;&#229;&#174;&#161;">
<path id="Vector" d="M27.6198 13.3792C28.0785 12.3464 28.3333 11.203 28.3333 10.0001C28.3333 5.39771 24.6023 1.66675 20 1.66675C15.3976 1.66675 11.6667 5.39771 11.6667 10.0001C11.6667 14.3044 14.9301 17.8466 19.1177 18.2872C21.1433 15.4006 24.2937 13.6798 27.6198 13.3792ZM21.924 29.9104C23.327 26.8794 23.412 23.2902 21.9248 20.0924C24.4002 16.6864 29.0988 15.6315 32.8263 17.7836C36.812 20.0849 38.1777 25.1811 35.8765 29.1667C33.5753 33.1526 28.4787 34.5182 24.493 32.2171C23.4515 31.6157 22.589 30.8237 21.924 29.9104ZM10.4555 16.7116C12.3791 19.4421 15.4449 21.3101 18.958 21.6211C20.6697 25.4679 19.2338 30.0647 15.5063 32.2169C11.5205 34.5181 6.42391 33.1524 4.12273 29.1667C1.82154 25.1809 3.18718 20.0842 7.17294 17.7831C8.21451 17.1817 9.33194 16.8307 10.4555 16.7116Z" fill="#1D65F3"/>
</g>
</svg>
