<?xml version="1.0" encoding="UTF-8"?>
<svg version="1.1" xmlns="http://www.w3.org/2000/svg" width="70" height="70">
<path d="M0 0 C1.0583757 -0.01929062 2.1167514 -0.03858124 3.2071991 -0.05845642 C8.05964837 -0.11615456 12.91194757 -0.1654911 17.76464844 -0.19628906 C20.32240303 -0.21786185 22.88008394 -0.2519555 25.4375 -0.29882812 C29.12574231 -0.36582639 32.81245565 -0.39329179 36.5012207 -0.41235352 C38.20939217 -0.4540995 38.20939217 -0.4540995 39.95207214 -0.49668884 C46.36850924 -0.48011512 50.12236027 0.09172514 54.73493958 4.72276306 C57.0397607 7.59586068 57.07431164 9.66883091 57.13574219 13.28173828 C57.15503281 14.34011398 57.17432343 15.39848969 57.19419861 16.48893738 C57.25189674 21.34138665 57.30123329 26.19368585 57.33203125 31.04638672 C57.35360404 33.60414131 57.38769769 36.16182222 57.43457031 38.71923828 C57.50156857 42.40748059 57.52903398 46.09419393 57.5480957 49.78295898 C57.57592636 50.92173996 57.60375702 52.06052094 57.63243103 53.23381042 C57.61585731 59.65024752 57.04401705 63.40409855 52.41297913 68.01667786 C49.5398815 70.32149898 47.46691128 70.35604992 43.85400391 70.41748047 C42.7956282 70.43677109 41.7372525 70.45606171 40.64680481 70.47593689 C35.79435554 70.53363502 30.94205634 70.58297157 26.08935547 70.61376953 C23.53160088 70.63534232 20.97391996 70.66943597 18.41650391 70.71630859 C14.7282616 70.78330685 11.04154826 70.81077226 7.3527832 70.82983398 C6.21400223 70.85766464 5.07522125 70.8854953 3.90193176 70.91416931 C-2.51450533 70.89759559 -6.26835636 70.32575533 -10.88093567 65.69471741 C-13.1857568 62.82161979 -13.22030773 60.74864956 -13.28173828 57.13574219 C-13.3010289 56.07736649 -13.32031952 55.01899078 -13.3401947 53.92854309 C-13.39789284 49.07609382 -13.44722938 44.22379462 -13.47802734 39.37109375 C-13.49960014 36.81333916 -13.53369378 34.25565824 -13.58056641 31.69824219 C-13.64756467 28.00999988 -13.67503007 24.32328654 -13.6940918 20.63452148 C-13.72192245 19.49574051 -13.74975311 18.35695953 -13.77842712 17.18367004 C-13.7618534 10.76723295 -13.19001314 7.01338192 -8.55897522 2.40080261 C-5.6858776 0.09598148 -3.61290737 0.06143055 0 0 Z " fill="#4CD68C" transform="translate(13.072998046875,-0.208740234375)"/>
<path d="M0 0 C1.35726196 0.00616333 1.35726196 0.00616333 2.74194336 0.01245117 C3.72356445 0.01438477 4.70518555 0.01631836 5.71655273 0.01831055 C6.74458008 0.03055664 7.77260742 0.04280273 8.83178711 0.05541992 C9.86368164 0.05606445 10.89557617 0.05670898 11.95874023 0.05737305 C19.62912714 0.10275995 19.62912714 0.10275995 20.76928711 1.24291992 C20.84108675 2.7622003 20.85320718 4.28459474 20.83178711 5.80541992 C20.82276367 6.63170898 20.81374023 7.45799805 20.80444336 8.30932617 C20.7928418 8.94741211 20.78124023 9.58549805 20.76928711 10.24291992 C19.19147461 10.33573242 19.19147461 10.33573242 17.58178711 10.43041992 C13.00850603 11.4050536 11.53014543 12.50764102 8.76928711 16.24291992 C7.66814967 20.64746969 7.79612345 23.87116935 8.76928711 28.24291992 C6.97794733 28.29683985 5.18614811 28.33567564 3.39428711 28.36791992 C2.39655273 28.39112305 1.39881836 28.41432617 0.37084961 28.43823242 C-2.23071289 28.24291992 -2.23071289 28.24291992 -4.23071289 26.24291992 C-4.48950195 23.84448242 -4.48950195 23.84448242 -4.49633789 20.86791992 C-4.49891602 19.80057617 -4.50149414 18.73323242 -4.50415039 17.63354492 C-4.49254883 15.95518555 -4.49254883 15.95518555 -4.48071289 14.24291992 C-4.48844727 13.12401367 -4.49618164 12.00510742 -4.50415039 10.85229492 C-4.50157227 9.78495117 -4.49899414 8.71760742 -4.49633789 7.61791992 C-4.49408203 6.6356543 -4.49182617 5.65338867 -4.48950195 4.64135742 C-4.13962416 1.39871641 -3.27794906 0.35696173 0 0 Z " fill="#EAF9F1" transform="translate(24.230712890625,19.757080078125)"/>
<path d="M0 0 C3.80470451 0.7133821 5.41196019 1.67868421 8 4.5625 C9.26114135 8.6426632 9.44412682 10.61368362 7.625 14.5 C4.31551579 17.10030902 2.25010937 17.23456204 -1.87109375 16.9765625 C-4 16.5625 -4 16.5625 -6.5625 15 C-8.58925458 11.56332919 -8.6198676 9.48832814 -8 5.5625 C-5.54999553 2.17572911 -4.13607554 0.77551416 0 0 Z " fill="#D6F7E5" transform="translate(42,31.4375)"/>
<path d="M0 0 C0.99 0.66 1.98 1.32 3 2 C1.54685114 5.39068068 -0.0405408 7.76040926 -3 10 C-6.75 10.25 -6.75 10.25 -10 10 C-10.32152515 6.46322336 -10.4131192 4.6037896 -8.375 1.625 C-5.33636094 -0.45406883 -3.61550392 -0.46155369 0 0 Z " fill="#F0FBF5" transform="translate(45,32)"/>
<path d="M0 0 C0.99 0.33 1.98 0.66 3 1 C2.505 1.515625 2.01 2.03125 1.5 2.5625 C-0.53366895 5.86721204 -0.3468602 8.18453778 0 12 C0.99 13.485 0.99 13.485 2 15 C1.34 15 0.68 15 0 15 C-0.33 15.66 -0.66 16.32 -1 17 C-4.96 17 -8.92 17 -13 17 C-13 16.67 -13 16.34 -13 16 C-9.37 16 -5.74 16 -2 16 C-2.66 14.35 -3.32 12.7 -4 11 C-3.7571492 6.38583487 -3.15879158 3.43346911 0 0 Z " fill="#70E1A3" transform="translate(35,32)"/>
<path d="M0 0 C0.66 0 1.32 0 2 0 C2.35789474 5.36842105 2.35789474 5.36842105 0.9375 7.875 C-2.00227124 9.58196395 -4.67870803 9.18799766 -8 9 C-7.04270084 7.87411986 -6.08412105 6.7493285 -5.125 5.625 C-4.59132812 4.99851562 -4.05765625 4.37203125 -3.5078125 3.7265625 C-2.38567993 2.44163349 -1.20628025 1.20628025 0 0 Z " fill="#F3FCF7" transform="translate(48,39)"/>
<path d="M0 0 C0.99 0.33 1.98 0.66 3 1 C2.2884375 1.8353125 2.2884375 1.8353125 1.5625 2.6875 C-0.12395996 5.18346074 -0.58953107 7.0446237 -1 10 C-1.66 10 -2.32 10 -3 10 C-3.36923077 4.58461538 -3.36923077 4.58461538 -1.5 1.625 C-1.005 1.08875 -0.51 0.5525 0 0 Z " fill="#64DC9C" transform="translate(35,32)"/>
<path d="M0 0 C0.66 0.33 1.32 0.66 2 1 C-0.31 3.31 -2.62 5.62 -5 8 C-6.32 6.68 -7.64 5.36 -9 4 C-8.2575 4.0825 -7.515 4.165 -6.75 4.25 C-3.21842973 3.92894816 -2.23369636 2.64734383 0 0 Z " fill="#74E5A5" transform="translate(46,37)"/>
</svg>
