<?xml version="1.0" encoding="UTF-8"?>
<svg version="1.1" xmlns="http://www.w3.org/2000/svg" width="70" height="70">
<path d="M0 0 C1.0583757 -0.01929062 2.1167514 -0.03858124 3.2071991 -0.05845642 C8.05964837 -0.11615456 12.91194757 -0.1654911 17.76464844 -0.19628906 C20.32240303 -0.21786185 22.88008394 -0.2519555 25.4375 -0.29882812 C29.12574231 -0.36582639 32.81245565 -0.39329179 36.5012207 -0.41235352 C38.20939217 -0.4540995 38.20939217 -0.4540995 39.95207214 -0.49668884 C46.36850924 -0.48011512 50.12236027 0.09172514 54.73493958 4.72276306 C57.0397607 7.59586068 57.07431164 9.66883091 57.13574219 13.28173828 C57.15503281 14.34011398 57.17432343 15.39848969 57.19419861 16.48893738 C57.25189674 21.34138665 57.30123329 26.19368585 57.33203125 31.04638672 C57.35360404 33.60414131 57.38769769 36.16182222 57.43457031 38.71923828 C57.50156857 42.40748059 57.52903398 46.09419393 57.5480957 49.78295898 C57.57592636 50.92173996 57.60375702 52.06052094 57.63243103 53.23381042 C57.61585731 59.65024752 57.04401705 63.40409855 52.41297913 68.01667786 C49.5398815 70.32149898 47.46691128 70.35604992 43.85400391 70.41748047 C42.7956282 70.43677109 41.7372525 70.45606171 40.64680481 70.47593689 C35.79435554 70.53363502 30.94205634 70.58297157 26.08935547 70.61376953 C23.53160088 70.63534232 20.97391996 70.66943597 18.41650391 70.71630859 C14.7282616 70.78330685 11.04154826 70.81077226 7.3527832 70.82983398 C6.21400223 70.85766464 5.07522125 70.8854953 3.90193176 70.91416931 C-2.51450533 70.89759559 -6.26835636 70.32575533 -10.88093567 65.69471741 C-13.1857568 62.82161979 -13.22030773 60.74864956 -13.28173828 57.13574219 C-13.3010289 56.07736649 -13.32031952 55.01899078 -13.3401947 53.92854309 C-13.39789284 49.07609382 -13.44722938 44.22379462 -13.47802734 39.37109375 C-13.49960014 36.81333916 -13.53369378 34.25565824 -13.58056641 31.69824219 C-13.64756467 28.00999988 -13.67503007 24.32328654 -13.6940918 20.63452148 C-13.72192245 19.49574051 -13.74975311 18.35695953 -13.77842712 17.18367004 C-13.7618534 10.76723295 -13.19001314 7.01338192 -8.55897522 2.40080261 C-5.6858776 0.09598148 -3.61290737 0.06143055 0 0 Z " fill="#4F7EFC" transform="translate(13.072998046875,-0.208740234375)"/>
<path d="M0 0 C4.95 0 9.9 0 15 0 C15.33 1.65 15.66 3.3 16 5 C17.65 5 19.3 5 21 5 C21 14.57 21 24.14 21 34 C12.09 34 3.18 34 -6 34 C-6 24.43 -6 14.86 -6 5 C-4.02 5 -2.04 5 0 5 C0 3.35 0 1.7 0 0 Z " fill="#FAFBFE" transform="translate(27,18)"/>
<path d="M0 0 C2.97 0 5.94 0 9 0 C9 1.32 9 2.64 9 4 C6.03 4 3.06 4 0 4 C0 2.68 0 1.36 0 0 Z " fill="#7D9EFC" transform="translate(30,21)"/>
<path d="M0 0 C0.66 0 1.32 0 2 0 C2 2.31 2 4.62 2 7 C2.99 7.33 3.98 7.66 5 8 C5.6875 10.0625 5.6875 10.0625 6 12 C4.125 11.6875 4.125 11.6875 2 11 C-0.67927341 6.98108988 -0.15601248 4.75838077 0 0 Z " fill="#668FFC" transform="translate(33,32)"/>
</svg>
