<?xml version="1.0" encoding="UTF-8"?>
<svg version="1.1" xmlns="http://www.w3.org/2000/svg" width="70" height="70">
<path d="M0 0 C1.0583757 -0.01929062 2.1167514 -0.03858124 3.2071991 -0.05845642 C8.05964837 -0.11615456 12.91194757 -0.1654911 17.76464844 -0.19628906 C20.32240303 -0.21786185 22.88008394 -0.2519555 25.4375 -0.29882812 C29.12574231 -0.36582639 32.81245565 -0.39329179 36.5012207 -0.41235352 C38.20939217 -0.4540995 38.20939217 -0.4540995 39.95207214 -0.49668884 C46.36850924 -0.48011512 50.12236027 0.09172514 54.73493958 4.72276306 C57.0397607 7.59586068 57.07431164 9.66883091 57.13574219 13.28173828 C57.15503281 14.34011398 57.17432343 15.39848969 57.19419861 16.48893738 C57.25189674 21.34138665 57.30123329 26.19368585 57.33203125 31.04638672 C57.35360404 33.60414131 57.38769769 36.16182222 57.43457031 38.71923828 C57.50156857 42.40748059 57.52903398 46.09419393 57.5480957 49.78295898 C57.57592636 50.92173996 57.60375702 52.06052094 57.63243103 53.23381042 C57.61585731 59.65024752 57.04401705 63.40409855 52.41297913 68.01667786 C49.5398815 70.32149898 47.46691128 70.35604992 43.85400391 70.41748047 C42.7956282 70.43677109 41.7372525 70.45606171 40.64680481 70.47593689 C35.79435554 70.53363502 30.94205634 70.58297157 26.08935547 70.61376953 C23.53160088 70.63534232 20.97391996 70.66943597 18.41650391 70.71630859 C14.7282616 70.78330685 11.04154826 70.81077226 7.3527832 70.82983398 C6.21400223 70.85766464 5.07522125 70.8854953 3.90193176 70.91416931 C-2.51450533 70.89759559 -6.26835636 70.32575533 -10.88093567 65.69471741 C-13.1857568 62.82161979 -13.22030773 60.74864956 -13.28173828 57.13574219 C-13.3010289 56.07736649 -13.32031952 55.01899078 -13.3401947 53.92854309 C-13.39789284 49.07609382 -13.44722938 44.22379462 -13.47802734 39.37109375 C-13.49960014 36.81333916 -13.53369378 34.25565824 -13.58056641 31.69824219 C-13.64756467 28.00999988 -13.67503007 24.32328654 -13.6940918 20.63452148 C-13.72192245 19.49574051 -13.74975311 18.35695953 -13.77842712 17.18367004 C-13.7618534 10.76723295 -13.19001314 7.01338192 -8.55897522 2.40080261 C-5.6858776 0.09598148 -3.61290737 0.06143055 0 0 Z " fill="#F6A155" transform="translate(13.072998046875,-0.208740234375)"/>
<path d="M0 0 C1.31871094 -0.00386719 1.31871094 -0.00386719 2.6640625 -0.0078125 C3.57929687 -0.00007813 4.49453125 0.00765625 5.4375 0.015625 C6.35273437 0.00789063 7.26796875 0.00015625 8.2109375 -0.0078125 C9.09007813 -0.00523438 9.96921875 -0.00265625 10.875 0 C11.67808594 0.00225586 12.48117188 0.00451172 13.30859375 0.00683594 C15.4375 0.265625 15.4375 0.265625 18.4375 2.265625 C18.80981445 5.12304687 18.80981445 5.12304687 18.80078125 8.734375 C18.80013672 10.02730469 18.79949219 11.32023437 18.79882812 12.65234375 C18.79052979 13.32700684 18.78223145 14.00166992 18.77368164 14.69677734 C18.7500886 16.75788451 18.75311974 18.8176984 18.75976562 20.87890625 C18.7042724 30.9988526 18.7042724 30.9988526 16.4375 33.265625 C14.22265625 33.52441406 14.22265625 33.52441406 11.5 33.53125 C10.52289063 33.53382812 9.54578125 33.53640625 8.5390625 33.5390625 C7.51554687 33.53132813 6.49203125 33.52359375 5.4375 33.515625 C4.41398437 33.52335937 3.39046875 33.53109375 2.3359375 33.5390625 C1.35882813 33.53648438 0.38171875 33.53390625 -0.625 33.53125 C-1.52347656 33.52899414 -2.42195313 33.52673828 -3.34765625 33.52441406 C-5.5625 33.265625 -5.5625 33.265625 -7.5625 31.265625 C-7.96006452 27.12954047 -7.89156622 22.98809931 -7.87817383 18.83447266 C-7.87501166 16.77322644 -7.89847703 14.7134126 -7.92382812 12.65234375 C-7.92447266 11.35941406 -7.92511719 10.06648438 -7.92578125 8.734375 C-7.92876221 7.54263672 -7.93174316 6.35089844 -7.93481445 5.12304688 C-7.81195068 4.18009766 -7.68908691 3.23714844 -7.5625 2.265625 C-4.40577318 0.16114046 -3.6106891 0.01014239 0 0 Z " fill="#FEF6EF" transform="translate(30.5625,17.734375)"/>
<path d="M0 0 C2.62187494 1.04874998 3.79371361 1.64931313 5.25 4.125 C5.4975 4.74375 5.745 5.3625 6 6 C4.625 7.5 4.625 7.5 3 9 C2.34 9 1.68 9 1 9 C1 8.34 1 7.68 1 7 C-1.64 6.67 -4.28 6.34 -7 6 C-7 5.34 -7 4.68 -7 4 C-4.36 3.67 -1.72 3.34 1 3 C0.67 2.01 0.34 1.02 0 0 Z " fill="#F7B278" transform="translate(37,21)"/>
</svg>
