<svg width="120" height="120" viewBox="0 0 120 120" fill="none" xmlns="http://www.w3.org/2000/svg">
<circle opacity="0.1" cx="60" cy="60" r="60" fill="#F78431"/>
<g clip-path="url(#clip0_13482_3881)">
<path d="M18 60C18 71.1391 22.425 81.822 30.3015 89.6985C38.178 97.575 48.8609 102 60 102C71.1391 102 81.822 97.575 89.6985 89.6985C97.575 81.822 102 71.1391 102 60C102 48.8609 97.575 38.178 89.6985 30.3015C81.822 22.425 71.1391 18 60 18C48.8609 18 38.178 22.425 30.3015 30.3015C22.425 38.178 18 48.8609 18 60Z" fill="#F78431"/>
<path d="M72.8587 73.1876C73.6232 73.1876 74.2223 73.8098 74.2223 74.592C74.2223 74.9606 74.0772 75.3145 73.8184 75.577C73.5596 75.8395 73.2078 75.9895 72.8392 75.9947H47.161C46.7918 75.9914 46.4389 75.8419 46.1797 75.579C45.9204 75.3161 45.776 74.9612 45.7779 74.592C45.7779 73.8098 46.3983 73.1876 47.1414 73.1876H48.9245V69.5591C48.9245 69.4987 48.9245 69.4382 48.9441 69.3796C49.0863 65.4702 53.5147 62.0622 56.5814 60.1564C53.5147 58.272 49.1041 54.8658 48.9441 50.9351C48.9441 50.8764 48.9263 50.8356 48.9263 50.7751V46.8071H47.161C46.7909 46.7999 46.4382 46.6488 46.1779 46.3858C46.0495 46.2574 45.9493 46.1037 45.8838 45.9344C45.8183 45.7651 45.7888 45.584 45.7974 45.4027C45.7974 44.6204 46.4196 44 47.161 44H72.8587C73.6232 44 74.2223 44.6204 74.2223 45.4027C74.2223 45.7715 74.0773 46.1255 73.8185 46.3883C73.5597 46.6511 73.208 46.8015 72.8392 46.8071H70.9352V50.7751C70.9352 50.8356 70.9352 50.8764 70.9156 50.9351C70.7734 54.8444 66.6845 58.2524 63.5983 60.1564C66.6863 62.0818 70.7947 65.5093 70.9156 69.4596V73.1876H72.8587ZM68.0072 71.4436C68.0082 71.0783 67.8664 70.727 67.6119 70.4649C67.3575 70.2028 67.0106 70.0506 66.6454 70.0409H53.2552C52.8861 70.0446 52.5336 70.1942 52.2744 70.457C52.0153 70.7198 51.8706 71.0745 51.8721 71.4436C51.8721 72.2258 52.4943 72.848 53.2339 72.848H66.6259C66.9948 72.8433 67.3469 72.6931 67.6056 72.4301C67.8643 72.1671 68.0086 71.8125 68.0072 71.4436ZM59.9503 61.8418C59.5838 61.8479 59.2345 61.9988 58.979 62.2617C58.7235 62.5245 58.5825 62.8779 58.5867 63.2444V65.9911C58.5867 66.7733 59.209 67.3938 59.9503 67.3938C60.3193 67.39 60.6719 67.2404 60.9311 66.9776C61.1902 66.7148 61.3348 66.3602 61.3334 65.9911V63.2444C61.3344 62.8771 61.1899 62.5243 60.9316 62.2631C60.6649 62.0106 60.3171 61.8613 59.9503 61.8418ZM59.9503 55.7476C59.5818 55.7532 59.2303 55.9033 58.9716 56.1657C58.7128 56.4281 58.5676 56.7817 58.5672 57.1502C58.5672 57.9324 59.1894 58.5529 59.9307 58.5529C60.2062 58.5513 60.4751 58.4683 60.7036 58.3143C60.9321 58.1603 61.1099 57.9422 61.2148 57.6875C61.3197 57.4327 61.3469 57.1526 61.293 56.8824C61.2391 56.6122 61.1066 56.364 60.9121 56.1689C60.6549 55.9139 60.3121 55.7637 59.9503 55.7476Z" fill="white"/>
</g>
<defs>
<clipPath id="clip0_13482_3881">
<rect width="84" height="84" fill="white" transform="translate(18 18)"/>
</clipPath>
</defs>
</svg>
