<svg width="120" height="120" viewBox="0 0 120 120" fill="none" xmlns="http://www.w3.org/2000/svg">
<circle opacity="0.1" cx="60" cy="60" r="60" fill="#1D65F3"/>
<g clip-path="url(#clip0_13482_3626)">
<path d="M18 60C18 71.1391 22.425 81.822 30.3015 89.6985C38.178 97.575 48.8609 102 60 102C71.1391 102 81.822 97.575 89.6985 89.6985C97.575 81.822 102 71.1391 102 60C102 48.8609 97.575 38.178 89.6985 30.3015C81.822 22.425 71.1391 18 60 18C48.8609 18 38.178 22.425 30.3015 30.3015C22.425 38.178 18 48.8609 18 60Z" fill="#1D65F3"/>
<path d="M36 60C36 61.5913 36.6321 63.1174 37.7574 64.2426C38.8826 65.3679 40.4087 66 42 66C43.5913 66 45.1174 65.3679 46.2426 64.2426C47.3679 63.1174 48 61.5913 48 60C48 58.4087 47.3679 56.8826 46.2426 55.7574C45.1174 54.6321 43.5913 54 42 54C40.4087 54 38.8826 54.6321 37.7574 55.7574C36.6321 56.8826 36 58.4087 36 60Z" fill="white"/>
<path d="M54 60C54 61.5913 54.6321 63.1174 55.7574 64.2426C56.8826 65.3679 58.4087 66 60 66C61.5913 66 63.1174 65.3679 64.2426 64.2426C65.3679 63.1174 66 61.5913 66 60C66 59.2121 65.8448 58.4319 65.5433 57.7039C65.2417 56.9759 64.7998 56.3145 64.2426 55.7574C63.6855 55.2002 63.0241 54.7583 62.2961 54.4567C61.5681 54.1552 60.7879 54 60 54C59.2121 54 58.4319 54.1552 57.7039 54.4567C56.9759 54.7583 56.3145 55.2002 55.7574 55.7574C55.2002 56.3145 54.7583 56.9759 54.4567 57.7039C54.1552 58.4319 54 59.2121 54 60Z" fill="white"/>
<path d="M72 60C72 61.5913 72.6321 63.1174 73.7574 64.2426C74.8826 65.3679 76.4087 66 78 66C79.5913 66 81.1174 65.3679 82.2426 64.2426C83.3679 63.1174 84 61.5913 84 60C84 58.4087 83.3679 56.8826 82.2426 55.7574C81.1174 54.6321 79.5913 54 78 54C76.4087 54 74.8826 54.6321 73.7574 55.7574C72.6321 56.8826 72 58.4087 72 60Z" fill="white"/>
</g>
<defs>
<clipPath id="clip0_13482_3626">
<rect width="84" height="84" fill="white" transform="translate(18 18)"/>
</clipPath>
</defs>
</svg>
