<svg width="64" height="64" viewBox="0 0 64 64" fill="none" xmlns="http://www.w3.org/2000/svg">
<path d="M18 6.66669C24.2592 6.66669 29.3333 11.7408 29.3333 18V29.3334H18C11.7407 29.3334 6.66663 24.2592 6.66663 18C6.66663 11.7408 11.7407 6.66669 18 6.66669ZM18 34.6667H29.3333V46C29.3333 52.2592 24.2592 57.3334 18 57.3334C11.7407 57.3334 6.66663 52.2592 6.66663 46C6.66663 39.7408 11.7407 34.6667 18 34.6667ZM46 6.66669C52.2592 6.66669 57.3333 11.7408 57.3333 18C57.3333 24.2592 52.2592 29.3334 46 29.3334H34.6666V18C34.6666 11.7408 39.7408 6.66669 46 6.66669ZM34.6666 34.6667H46C52.2592 34.6667 57.3333 39.7408 57.3333 46C57.3333 52.2592 52.2592 57.3334 46 57.3334C39.7408 57.3334 34.6666 52.2592 34.6666 46V34.6667Z" fill="#426EFC"/>
</svg>
