<svg width="64" height="64" viewBox="0 0 64 64" fill="none" xmlns="http://www.w3.org/2000/svg">
<path d="M19.705 44.1029C14.2371 40.2403 10.6666 33.8704 10.6666 26.6667C10.6666 14.8846 20.2179 5.33334 32 5.33334C43.7821 5.33334 53.3333 14.8846 53.3333 26.6667C53.3333 33.8704 49.7629 40.2403 44.2949 44.1029L49.8496 56.7989C50.1448 57.4736 49.837 58.2597 49.1624 58.5549C48.9938 58.6285 48.812 58.6667 48.628 58.6667H15.372C14.6356 58.6667 14.0387 58.0696 14.0387 57.3333C14.0387 57.1493 14.0767 56.9675 14.1504 56.7989L19.705 44.1029ZM37.6656 42.256L41.2178 39.7467C45.4426 36.7621 48 31.9339 48 26.6667C48 17.8301 40.8365 10.6667 32 10.6667C23.1634 10.6667 16 17.8301 16 26.6667C16 31.9339 18.5573 36.7621 22.7822 39.7467L26.3343 42.256L21.488 53.3333H42.512L37.6656 42.256ZM21.6493 29.2544L26.8248 27.9605C27.4029 30.2808 29.5008 32 32 32C34.4992 32 36.597 30.2808 37.1752 27.9605L42.3506 29.2544C41.1941 33.8949 36.9986 37.3333 32 37.3333C27.0013 37.3333 22.8057 33.8949 21.6493 29.2544Z" fill="#959BAE"/>
</svg>
