<svg width="64" height="64" viewBox="0 0 64 64" fill="none" xmlns="http://www.w3.org/2000/svg">
<path d="M18 6.66666C24.2592 6.66666 29.3333 11.7408 29.3333 18V29.3333H18C11.7407 29.3333 6.66663 24.2592 6.66663 18C6.66663 11.7408 11.7407 6.66666 18 6.66666ZM24 24V18C24 14.6863 21.3137 12 18 12C14.6863 12 12 14.6863 12 18C12 21.3137 14.6863 24 18 24H24ZM18 34.6667H29.3333V46C29.3333 52.2592 24.2592 57.3333 18 57.3333C11.7407 57.3333 6.66663 52.2592 6.66663 46C6.66663 39.7408 11.7407 34.6667 18 34.6667ZM18 40C14.6863 40 12 42.6864 12 46C12 49.3136 14.6863 52 18 52C21.3137 52 24 49.3136 24 46V40H18ZM46 6.66666C52.2592 6.66666 57.3333 11.7408 57.3333 18C57.3333 24.2592 52.2592 29.3333 46 29.3333H34.6666V18C34.6666 11.7408 39.7408 6.66666 46 6.66666ZM46 24C49.3136 24 52 21.3137 52 18C52 14.6863 49.3136 12 46 12C42.6864 12 40 14.6863 40 18V24H46ZM34.6666 34.6667H46C52.2592 34.6667 57.3333 39.7408 57.3333 46C57.3333 52.2592 52.2592 57.3333 46 57.3333C39.7408 57.3333 34.6666 52.2592 34.6666 46V34.6667ZM40 40V46C40 49.3136 42.6864 52 46 52C49.3136 52 52 49.3136 52 46C52 42.6864 49.3136 40 46 40H40Z" fill="#959BAE"/>
</svg>
