<svg width="64" height="64" viewBox="0 0 64 64" fill="none" xmlns="http://www.w3.org/2000/svg">
<path d="M19.705 44.1029C14.2371 40.2402 10.6666 33.8704 10.6666 26.6666C10.6666 14.8846 20.2179 5.33331 32 5.33331C43.7821 5.33331 53.3333 14.8846 53.3333 26.6666C53.3333 33.8704 49.7629 40.2402 44.2949 44.1029L49.8496 56.7989C50.1448 57.4736 49.837 58.2597 49.1624 58.5549C48.9938 58.6285 48.812 58.6666 48.628 58.6666H15.372C14.6356 58.6666 14.0387 58.0696 14.0387 57.3333C14.0387 57.1493 14.0767 56.9674 14.1504 56.7989L19.705 44.1029ZM21.6493 29.2544C22.8057 33.8949 27.0013 37.3333 32 37.3333C36.9986 37.3333 41.1941 33.8949 42.3506 29.2544L37.1752 27.9605C36.597 30.2808 34.4992 32 32 32C29.5008 32 27.4029 30.2808 26.8248 27.9605L21.6493 29.2544Z" fill="#426EFC"/>
</svg>
