<svg width="16" height="16" viewBox="0 0 16 16" fill="none" xmlns="http://www.w3.org/2000/svg">
<g id="Frame">
<path id="Vector" d="M11.79 2C12.114 2 12.425 2.113 12.66 2.315C12.7737 2.41033 12.867 2.52769 12.9342 2.66002C13.0014 2.79235 13.0411 2.93691 13.051 3.085L13.053 3.143V9.29098L12.737 9.14298C12.903 9.14298 13.067 9.17298 13.22 9.22998C13.373 9.28698 13.513 9.37098 13.63 9.47798C13.747 9.58398 13.84 9.70998 13.904 9.84798C13.967 9.98698 14 10.136 14 10.286V12.857C14 13.16 13.867 13.451 13.63 13.665C13.3838 13.8829 13.0658 14.0022 12.737 14H3.263C2.928 14 2.607 13.88 2.37 13.665C2.25503 13.5638 2.16267 13.4396 2.09891 13.3004C2.03516 13.1612 2.00146 13.0101 2 12.857V10.286C2 10.136 2.033 9.98698 2.096 9.84798C2.16 9.70998 2.253 9.58398 2.37 9.47798C2.48984 9.37024 2.62894 9.2861 2.78 9.22998C2.933 9.17198 3.097 9.14298 3.263 9.14298L2.947 9.22998V3.143C2.947 2.85 3.072 2.568 3.295 2.355C3.519 2.143 3.824 2.016 4.147 2.001L4.211 2H11.79ZM5.432 10.286H3.263V12.857H12.737V10.286H10.568L9.988 11.159C9.877 11.329 9.718 11.469 9.528 11.566C9.338 11.663 9.124 11.714 8.906 11.714H7.094C6.876 11.714 6.662 11.664 6.472 11.566C6.28631 11.472 6.12791 11.3318 6.012 11.159L5.432 10.286ZM11.789 3.143H4.212V9.14298H5.433C5.651 9.14298 5.866 9.19398 6.055 9.29098C6.245 9.38798 6.404 9.52798 6.516 9.69798L7.096 10.571H8.906L9.486 9.69798C9.598 9.52798 9.756 9.38798 9.946 9.29098C10.136 9.19398 10.351 9.14298 10.569 9.14298H11.791V3.143H11.789ZM9.263 6.85699C9.34495 6.85761 9.424 6.88739 9.486 6.94099C9.516 6.96699 9.539 6.99899 9.555 7.03399C9.57074 7.06817 9.57892 7.10535 9.579 7.14299V7.71399C9.57907 7.75196 9.57088 7.78949 9.555 7.82399C9.53847 7.85901 9.51499 7.89031 9.486 7.91598C9.424 7.96958 9.34495 7.99936 9.263 7.99999H6.737C6.65505 7.99936 6.576 7.96958 6.514 7.91598C6.48501 7.89031 6.46153 7.85901 6.445 7.82399C6.42912 7.78949 6.42093 7.75196 6.421 7.71399V7.14299C6.421 7.10499 6.429 7.06799 6.445 7.03299C6.46151 6.99795 6.48499 6.96665 6.514 6.94099C6.576 6.88739 6.65505 6.85761 6.737 6.85699H9.263ZM9.895 4.57099C9.979 4.57099 10.059 4.60099 10.118 4.65499C10.178 4.70899 10.21 4.78099 10.21 4.85699V5.42899C10.2097 5.46724 10.2014 5.505 10.1855 5.5398C10.1697 5.57461 10.1467 5.60568 10.118 5.63099C10.0564 5.68518 9.97702 5.71473 9.895 5.71399H6.105C6.02298 5.71473 5.94357 5.68518 5.882 5.63099C5.85319 5.60573 5.83002 5.57469 5.814 5.53989C5.79798 5.50509 5.78946 5.4673 5.789 5.42899V4.85699C5.789 4.78099 5.823 4.70899 5.882 4.65499C5.94343 4.60044 6.02285 4.57053 6.105 4.57099H9.895Z" fill="#666666"/>
</g>
</svg>
