<svg xmlns="http://www.w3.org/2000/svg" width="80" height="80" viewBox="0 0 80 80">
  <defs>
    <linearGradient id="grad-create-8" x1="0%" y1="0%" x2="100%" y2="100%">
      <stop offset="0%" stop-color="#654EA3" />
      <stop offset="100%" stop-color="#EAafc8" />
    </linearGradient>
  </defs>
  <rect width="80" height="80" rx="24" fill="url(#grad-create-8)" />
  <path d="M26 24h6v6h-6a2 2 0 0 0-2 2v24a2 2 0 0 0 2 2h28a2 2 0 0 0 2-2V32a2 2 0 0 0-2-2h-6v-6h6a6 6 0 0 1 6 6v24a6 6 0 0 1-6 6H26a6 6 0 0 1-6-6V30a6 6 0 0 1 6-6z" fill="#FFFFFF" opacity="0.92" />
  <path d="M32 24h4v10h-4V24zm12 0h4v10h-4V24zM28 38h24v4H28v-4zm0 8h18v4H28v-4z" fill="#FFFFFF" opacity="0.92" />
</svg>