<?xml version="1.0" encoding="UTF-8"?>
<svg version="1.1" xmlns="http://www.w3.org/2000/svg" width="86" height="86">
<path d="M0 0 C9.5983299 5.74686735 17.24213637 12.93424383 21.47265625 23.48046875 C21.8284375 24.351875 22.18421875 25.22328125 22.55078125 26.12109375 C25.41762976 36.56808407 24.80949175 49.33588881 19.953125 59.0078125 C14.20625765 68.6061424 7.01888117 76.24994887 -3.52734375 80.48046875 C-4.83251953 81.01607422 -4.83251953 81.01607422 -6.1640625 81.5625 C-15.94191742 84.23125251 -28.93806683 83.94047489 -38.2109375 79.8046875 C-48.10405237 74.14909569 -56.24787621 66.14871484 -60.52734375 55.48046875 C-60.883125 54.6090625 -61.23890625 53.73765625 -61.60546875 52.83984375 C-64.47231726 42.39285343 -63.86417925 29.62504869 -59.0078125 19.953125 C-53.26094515 10.3547951 -46.07356867 2.71098863 -35.52734375 -1.51953125 C-34.6559375 -1.8753125 -33.78453125 -2.23109375 -32.88671875 -2.59765625 C-22.43972843 -5.46450476 -9.67192369 -4.85636675 0 0 Z " fill="#51D6B9" transform="translate(62.52734375,3.51953125)"/>
<path d="M0 0 C1.11375 0.1546875 1.11375 0.1546875 2.25 0.3125 C1.25 3.3125 1.25 3.3125 -0.8125 4.5 C-1.451875 4.768125 -2.09125 5.03625 -2.75 5.3125 C-2.75 6.9625 -2.75 8.6125 -2.75 10.3125 C-0.25935112 10.99957555 1.62886292 11.3125 4.25 11.3125 C4.91 10.6525 5.57 9.9925 6.25 9.3125 C8.96484375 9.01171875 8.96484375 9.01171875 12.1875 9 C13.77884766 8.97486328 13.77884766 8.97486328 15.40234375 8.94921875 C18.25 9.3125 18.25 9.3125 20.10546875 10.67578125 C21.74425372 13.01929969 21.66904291 14.51888061 21.25 17.3125 C20.09765625 18.9375 20.09765625 18.9375 18.25 20.3125 C14.20633502 20.9949751 10.30031474 20.93820379 6.25 20.3125 C3.5 17.8125 3.5 17.8125 2.25 15.3125 C0.27 16.3025 0.27 16.3025 -1.75 17.3125 C-1.75 16.3225 -1.75 15.3325 -1.75 14.3125 C-2.389375 14.126875 -3.02875 13.94125 -3.6875 13.75 C-5.75 12.3125 -5.75 12.3125 -6.75 9 C-6.75 5.3125 -6.75 5.3125 -5.125 2.375 C-2.75 0.3125 -2.75 0.3125 0 0 Z " fill="#EEFBF8" transform="translate(29.75,28.6875)"/>
<path d="M0 0 C1.74796875 -0.02126953 1.74796875 -0.02126953 3.53125 -0.04296875 C6.5 0.1875 6.5 0.1875 8.5 2.1875 C8.75 5.1875 8.75 5.1875 8.5 8.1875 C5.72190605 10.96559395 3.93244797 10.48705703 0.0625 10.5 C-1.66806641 10.52513672 -1.66806641 10.52513672 -3.43359375 10.55078125 C-6.5 10.1875 -6.5 10.1875 -8.421875 8.86328125 C-9.5 7.1875 -9.5 7.1875 -9.3125 4.0625 C-9.044375 3.11375 -8.77625 2.165 -8.5 1.1875 C-5.65161879 -0.2366906 -3.17212092 0.01754492 0 0 Z " fill="#FBFEFD" transform="translate(42.5,50.8125)"/>
<path d="M0 0 C1.1653125 0.00515625 2.330625 0.0103125 3.53125 0.015625 C4.6965625 0.01046875 5.861875 0.0053125 7.0625 0 C10.03125 0.265625 10.03125 0.265625 12.03125 2.265625 C12.28125 5.265625 12.28125 5.265625 12.03125 8.265625 C9.15824457 11.13863043 7.0278178 10.56584047 3.03125 10.578125 C1.773125 10.59488281 0.515 10.61164062 -0.78125 10.62890625 C-2.3590625 10.44908203 -2.3590625 10.44908203 -3.96875 10.265625 C-5.96875 7.265625 -5.96875 7.265625 -5.71875 4.703125 C-4.61082571 1.10237105 -3.77662326 0.3379084 0 0 Z " fill="#FAFDFD" transform="translate(38.96875,24.734375)"/>
<path d="M0 0 C2.97454134 0.32157204 4.59335278 0.62139742 6.8125 2.6875 C8.37766945 5.73546155 8.49366687 7.61485573 8 11 C6.1875 13.375 6.1875 13.375 4 15 C3.01 15 2.02 15 1 15 C1 15.66 1 16.32 1 17 C-0.32 16.34 -1.64 15.68 -3 15 C-0.63707344 12.47411298 0.66462511 11.11179163 4 10 C4 8.02 4 6.04 4 4 C1.525 3.01 1.525 3.01 -1 2 C-0.67 1.34 -0.34 0.68 0 0 Z " fill="#ECFAF7" transform="translate(55,42)"/>
</svg>
