<svg xmlns="http://www.w3.org/2000/svg" width="80" height="80" viewBox="0 0 80 80">
  <defs>
    <linearGradient id="grad-create-6" x1="100%" y1="0%" x2="0%" y2="100%">
      <stop offset="0%" stop-color="#2BC0E4" />
      <stop offset="100%" stop-color="#EAECC6" />
    </linearGradient>
  </defs>
  <rect width="80" height="80" rx="24" fill="url(#grad-create-6)" />
  <g fill="#FFFFFF" opacity="0.9">
    <rect x="24" y="24" width="12" height="12" rx="3" />
    <rect x="44" y="24" width="12" height="12" rx="3" />
    <rect x="34" y="44" width="12" height="12" rx="3" />
    <path d="M34 30h-4a2 2 0 0 0 0 4h4v-4zm12 4h4a2 2 0 1 0 0-4h-4v4zm-6 6v4h-4a2 2 0 1 0 0 4h4v4h4v-4h4a2 2 0 1 0 0-4h-4v-4h-4z" />
  </g>
</svg>