<?xml version="1.0" encoding="UTF-8"?>
<svg version="1.1" xmlns="http://www.w3.org/2000/svg" width="86" height="86">
<path d="M0 0 C9.5983299 5.74686735 17.24213637 12.93424383 21.47265625 23.48046875 C21.8284375 24.351875 22.18421875 25.22328125 22.55078125 26.12109375 C25.41762976 36.56808407 24.80949175 49.33588881 19.953125 59.0078125 C14.20625765 68.6061424 7.01888117 76.24994887 -3.52734375 80.48046875 C-4.83251953 81.01607422 -4.83251953 81.01607422 -6.1640625 81.5625 C-15.94191742 84.23125251 -28.93806683 83.94047489 -38.2109375 79.8046875 C-48.10405237 74.14909569 -56.24787621 66.14871484 -60.52734375 55.48046875 C-60.883125 54.6090625 -61.23890625 53.73765625 -61.60546875 52.83984375 C-64.47231726 42.39285343 -63.86417925 29.62504869 -59.0078125 19.953125 C-53.26094515 10.3547951 -46.07356867 2.71098863 -35.52734375 -1.51953125 C-34.6559375 -1.8753125 -33.78453125 -2.23109375 -32.88671875 -2.59765625 C-22.43972843 -5.46450476 -9.67192369 -4.85636675 0 0 Z " fill="#3C72FD" transform="translate(62.52734375,3.51953125)"/>
<path d="M0 0 C0.95132813 0.53367187 1.90265625 1.06734375 2.8828125 1.6171875 C3.84960938 2.15601563 4.81640625 2.69484375 5.8125 3.25 C6.89917969 3.86488281 6.89917969 3.86488281 8.0078125 4.4921875 C8.0078125 5.1521875 8.0078125 5.8121875 8.0078125 6.4921875 C5.78826599 7.86476227 3.55945841 9.21477901 1.3203125 10.5546875 C0.69447266 10.94462891 0.06863281 11.33457031 -0.57617188 11.73632812 C-3.28137263 13.33678721 -5.33716901 14.50027415 -8.5234375 14.4609375 C-11.77104589 13.18655952 -14.75498221 11.62396822 -17.8046875 9.9296875 C-18.40216797 9.60033203 -18.99964844 9.27097656 -19.61523438 8.93164062 C-21.07752748 8.12445483 -22.5353274 7.30913833 -23.9921875 6.4921875 C-23.9921875 5.8321875 -23.9921875 5.1721875 -23.9921875 4.4921875 C-21.62939096 3.09134375 -19.25587525 1.72256651 -16.8671875 0.3671875 C-16.20203125 -0.03113281 -15.536875 -0.42945313 -14.8515625 -0.83984375 C-8.81313336 -4.21426003 -6.1001843 -3.07398321 0 0 Z " fill="#F7F9FE" transform="translate(50.9921875,30.5078125)"/>
<path d="M0 0 C2.46252006 0.8357373 4.39432923 2.02912507 6.58984375 3.41796875 C9.9697716 5.44424996 9.9697716 5.44424996 13.77734375 5.29296875 C14.56109375 4.77734375 15.34484375 4.26171875 16.15234375 3.73046875 C22.60410094 -0.32576128 22.60410094 -0.32576128 25.58984375 -0.01953125 C26.10546875 0.22796875 26.62109375 0.47546875 27.15234375 0.73046875 C27.15234375 1.72046875 27.15234375 2.71046875 27.15234375 3.73046875 C25.09649278 4.91040078 23.03397834 6.0742533 20.96484375 7.23046875 C19.81628906 7.88015625 18.66773437 8.52984375 17.484375 9.19921875 C14.17824633 10.7185651 12.68569747 11.34082621 9.15234375 10.73046875 C6.07421875 9.3046875 6.07421875 9.3046875 2.90234375 7.41796875 C1.8453125 6.80308594 0.78828125 6.18820313 -0.30078125 5.5546875 C-2.84765625 3.73046875 -2.84765625 3.73046875 -3.84765625 0.73046875 C-1.84765625 -0.26953125 -1.84765625 -0.26953125 0 0 Z " fill="#F2F6FE" transform="translate(30.84765625,41.26953125)"/>
<path d="M0 0 C4.45266638 -0.57085466 6.80829402 0.32002622 10.5 2.625 C14.07732535 4.80820118 14.07732535 4.80820118 18.25 4.5 C20.05362575 3.51620414 21.82746742 2.47526456 23.5625 1.375 C26.29984674 -0.16914432 27.90981733 -0.2648728 31 0 C31 0.99 31 1.98 31 3 C28.80488686 4.401264 26.59819045 5.76961427 24.375 7.125 C23.75753906 7.52332031 23.14007813 7.92164063 22.50390625 8.33203125 C19.33930948 10.23078931 17.59203804 11.10764328 13.90625 10.4375 C10.94090628 8.97077085 8.01067274 7.49379203 5.125 5.875 C4.15820312 5.33617187 3.19140625 4.79734375 2.1953125 4.2421875 C1.47085937 3.83226562 0.74640625 3.42234375 0 3 C0 2.01 0 1.02 0 0 Z " fill="#F2F6FE" transform="translate(27,49)"/>
<path d="M0 0 C0.66 0.33 1.32 0.66 2 1 C1.67 1.99 1.34 2.98 1 4 C-0.67929765 4.79025772 -2.36759334 5.5687295 -4.1015625 6.23046875 C-6.25585759 7.04891983 -6.25585759 7.04891983 -9.0625 8.8125 C-12 10 -12 10 -15.0625 9.375 C-17.84672605 8.07174525 -20.40272281 6.6403856 -23 5 C-24.32608822 4.31903578 -25.65686601 3.64669414 -27 3 C-25.4375 2.25 -25.4375 2.25 -23 2 C-21.28103926 3.03786309 -19.56237802 4.07624206 -17.84765625 5.12109375 C-14.58683378 6.67222494 -12.38817718 5.99308641 -9 5 C-6.57363066 3.74084622 -4.23807609 2.40651212 -1.91796875 0.9609375 C-1.28503906 0.64382812 -0.65210937 0.32671875 0 0 Z " fill="#5887FD" transform="translate(56,45)"/>
<path d="M0 0 C0.74765625 0.37253906 1.4953125 0.74507812 2.265625 1.12890625 C3.74289063 1.83853516 3.74289063 1.83853516 5.25 2.5625 C6.22453125 3.03816406 7.1990625 3.51382813 8.203125 4.00390625 C11.19464905 5.06932334 12.13251318 5.18593591 15 4 C17.10353062 2.97601717 19.14317045 1.86505768 21.1953125 0.7421875 C21.79085937 0.49726562 22.38640625 0.25234375 23 0 C23.66 0.33 24.32 0.66 25 1 C21.17563507 4.2449157 17.55713827 6.92130535 13 9 C7.73420916 8.21573328 3.37481862 4.90914335 -1 2 C-0.67 1.34 -0.34 0.68 0 0 Z " fill="#5484FD" transform="translate(31,39)"/>
<path d="M0 0 C3.465 1.485 3.465 1.485 7 3 C7 3.66 7 4.32 7 5 C3.31245243 4.50168276 1.39509338 3.89932357 -1 1 C-0.67 0.67 -0.34 0.34 0 0 Z " fill="#4D7FFD" transform="translate(31,39)"/>
</svg>
