<?xml version="1.0" encoding="UTF-8"?>
<svg version="1.1" xmlns="http://www.w3.org/2000/svg" width="86" height="86">
<path d="M0 0 C9.5983299 5.74686735 17.24213637 12.93424383 21.47265625 23.48046875 C21.8284375 24.351875 22.18421875 25.22328125 22.55078125 26.12109375 C25.41762976 36.56808407 24.80949175 49.33588881 19.953125 59.0078125 C14.20625765 68.6061424 7.01888117 76.24994887 -3.52734375 80.48046875 C-4.83251953 81.01607422 -4.83251953 81.01607422 -6.1640625 81.5625 C-15.94191742 84.23125251 -28.93806683 83.94047489 -38.2109375 79.8046875 C-48.10405237 74.14909569 -56.24787621 66.14871484 -60.52734375 55.48046875 C-60.883125 54.6090625 -61.23890625 53.73765625 -61.60546875 52.83984375 C-64.47231726 42.39285343 -63.86417925 29.62504869 -59.0078125 19.953125 C-53.26094515 10.3547951 -46.07356867 2.71098863 -35.52734375 -1.51953125 C-34.6559375 -1.8753125 -33.78453125 -2.23109375 -32.88671875 -2.59765625 C-22.43972843 -5.46450476 -9.67192369 -4.85636675 0 0 Z " fill="#74C538" transform="translate(62.52734375,3.51953125)"/>
<path d="M0 0 C2.97 0 5.94 0 9 0 C9 8.91 9 17.82 9 27 C6.03 27 3.06 27 0 27 C0 18.09 0 9.18 0 0 Z " fill="#F1F9EB" transform="translate(39,30)"/>
<path d="M0 0 C2.97 0 5.94 0 9 0 C9 6.6 9 13.2 9 20 C6.03 20 3.06 20 0 20 C0 13.4 0 6.8 0 0 Z " fill="#FEFEFE" transform="translate(27,37)"/>
<path d="M0 0 C0.94921875 2.109375 0.94921875 2.109375 1.6875 4.75 C2.06455078 6.04164062 2.06455078 6.04164062 2.44921875 7.359375 C2.99753428 9.98817853 3.10108994 12.32352338 3 15 C1.02 15.33 -0.96 15.66 -3 16 C-4.85646001 13.21530998 -5.45157815 11.7318584 -6.125 8.5625 C-6.37636719 7.41974609 -6.37636719 7.41974609 -6.6328125 6.25390625 C-7 4 -7 4 -7 0 C-3.98968256 -0.93423645 -3.13349732 -1.04449911 0 0 Z " fill="#F7FCF4" transform="translate(57,36)"/>
<path d="M0 0 C0.33 0 0.66 0 1 0 C1 4.29 1 8.58 1 13 C3.64 13 6.28 13 9 13 C9 15.31 9 17.62 9 20 C6.03 20 3.06 20 0 20 C0 13.4 0 6.8 0 0 Z " fill="#B8E19A" transform="translate(27,37)"/>
<path d="M0 0 C2.64 0 5.28 0 8 0 C8 1.32 8 2.64 8 4 C5.36 4 2.72 4 0 4 C0 2.68 0 1.36 0 0 Z " fill="#FDFEFC" transform="translate(28,32)"/>
<path d="M0 0 C2.97 0 5.94 0 9 0 C9 0.99 9 1.98 9 3 C6.03 3 3.06 3 0 3 C0 2.01 0 1.02 0 0 Z " fill="#EBF6E3" transform="translate(39,26)"/>
<path d="M0 0 C2.64 0 5.28 0 8 0 C8 0.99 8 1.98 8 3 C5.36 3 2.72 3 0 3 C0 2.01 0 1.02 0 0 Z " fill="#F6FBF3" transform="translate(28,54)"/>
<path d="M0 0 C0 0.99 0 1.98 0 3 C-1.98 3.33 -3.96 3.66 -6 4 C-6 3.01 -6 2.02 -6 1 C-3 0 -3 0 0 0 Z " fill="#F5FBF1" transform="translate(61,53)"/>
</svg>
