<?xml version="1.0" encoding="UTF-8"?>
<svg version="1.1" xmlns="http://www.w3.org/2000/svg" width="86" height="86">
<path d="M0 0 C9.5983299 5.74686735 17.24213637 12.93424383 21.47265625 23.48046875 C21.8284375 24.351875 22.18421875 25.22328125 22.55078125 26.12109375 C25.41762976 36.56808407 24.80949175 49.33588881 19.953125 59.0078125 C14.20625765 68.6061424 7.01888117 76.24994887 -3.52734375 80.48046875 C-4.83251953 81.01607422 -4.83251953 81.01607422 -6.1640625 81.5625 C-15.94191742 84.23125251 -28.93806683 83.94047489 -38.2109375 79.8046875 C-48.10405237 74.14909569 -56.24787621 66.14871484 -60.52734375 55.48046875 C-60.883125 54.6090625 -61.23890625 53.73765625 -61.60546875 52.83984375 C-64.47231726 42.39285343 -63.86417925 29.62504869 -59.0078125 19.953125 C-53.26094515 10.3547951 -46.07356867 2.71098863 -35.52734375 -1.51953125 C-34.6559375 -1.8753125 -33.78453125 -2.23109375 -32.88671875 -2.59765625 C-22.43972843 -5.46450476 -9.67192369 -4.85636675 0 0 Z " fill="#FF9E56" transform="translate(62.52734375,3.51953125)"/>
<path d="M0 0 C3.38504092 0.23422029 4.12224105 0.36296873 6.5625 2.875 C7.84004152 6.98138345 7.13052763 9.17914575 5.375 13 C3.09421633 14.986489 2.31865606 14.95733832 -0.625 15 C-4.5625 14.6875 -4.5625 14.6875 -6.5625 13.6875 C-7.5525 14.1825 -7.5525 14.1825 -8.5625 14.6875 C-9.22022428 17.71684491 -9.22022428 17.71684491 -9.5625 20.6875 C-7.9125 21.3475 -6.2625 22.0075 -4.5625 22.6875 C-4.5625 22.0275 -4.5625 21.3675 -4.5625 20.6875 C0.62813545 20.16843645 0.62813545 20.16843645 3.4375 20.6875 C6 23.375 6 23.375 7.4375 26.6875 C7.27079485 30.27166072 6.45680479 31.65854282 4.4375 34.6875 C1.36642561 35.45230424 -1.47954298 35.37077948 -4.5625 34.6875 C-7.1875 31.9375 -7.1875 31.9375 -8.5625 28.6875 C-8.3125 26.3125 -8.3125 26.3125 -7.5625 24.6875 C-9.50853274 24.09679986 -9.50853274 24.09679986 -11.5625 23.6875 C-11.8925 24.0175 -12.2225 24.3475 -12.5625 24.6875 C-17.67423184 25.27409218 -17.67423184 25.27409218 -20.5625 24.6875 C-23.1875 22.0625 -23.1875 22.0625 -24.5625 18.6875 C-23.8686256 15.07935312 -23.15963506 13.28463506 -20.5625 10.6875 C-16.42252433 10.4903583 -13.48546433 10.37984522 -9.5625 11.6875 C-8.9025 11.0275 -8.2425 10.3675 -7.5625 9.6875 C-7.8925 8.6975 -8.2225 7.7075 -8.5625 6.6875 C-6.57885237 2.08904413 -4.96992113 0.25944123 0 0 Z " fill="#FFFBF9" transform="translate(48.5625,25.3125)"/>
</svg>
