<?xml version="1.0" encoding="UTF-8"?>
<svg version="1.1" xmlns="http://www.w3.org/2000/svg" width="86" height="86">
<path d="M0 0 C9.5983299 5.74686735 17.24213637 12.93424383 21.47265625 23.48046875 C21.8284375 24.351875 22.18421875 25.22328125 22.55078125 26.12109375 C25.41762976 36.56808407 24.80949175 49.33588881 19.953125 59.0078125 C14.20625765 68.6061424 7.01888117 76.24994887 -3.52734375 80.48046875 C-4.83251953 81.01607422 -4.83251953 81.01607422 -6.1640625 81.5625 C-15.94191742 84.23125251 -28.93806683 83.94047489 -38.2109375 79.8046875 C-48.10405237 74.14909569 -56.24787621 66.14871484 -60.52734375 55.48046875 C-60.883125 54.6090625 -61.23890625 53.73765625 -61.60546875 52.83984375 C-64.47231726 42.39285343 -63.86417925 29.62504869 -59.0078125 19.953125 C-53.26094515 10.3547951 -46.07356867 2.71098863 -35.52734375 -1.51953125 C-34.6559375 -1.8753125 -33.78453125 -2.23109375 -32.88671875 -2.59765625 C-22.43972843 -5.46450476 -9.67192369 -4.85636675 0 0 Z " fill="#F6A84C" transform="translate(62.52734375,3.51953125)"/>
<path d="M0 0 C1.47668858 0.0133035 2.95331108 0.03716415 4.4296875 0.0703125 C5.18378906 0.07933594 5.93789063 0.08835937 6.71484375 0.09765625 C8.57826004 0.1212438 10.44151343 0.15711531 12.3046875 0.1953125 C12.9646875 2.5053125 13.6246875 4.8153125 14.3046875 7.1953125 C16.6146875 7.5253125 18.9246875 7.8553125 21.3046875 8.1953125 C21.4126898 10.29835727 21.49027737 12.40298159 21.5546875 14.5078125 C21.60109375 15.67957031 21.6475 16.85132813 21.6953125 18.05859375 C21.3046875 21.1953125 21.3046875 21.1953125 19.2890625 23.11328125 C18.63421875 23.47035156 17.979375 23.82742187 17.3046875 24.1953125 C16.9746875 23.8653125 16.6446875 23.5353125 16.3046875 23.1953125 C13.60813896 23.12211629 10.93777292 23.10288713 8.2421875 23.1328125 C7.48357422 23.13732422 6.72496094 23.14183594 5.94335938 23.14648438 C4.06376879 23.1583057 2.18421851 23.17624172 0.3046875 23.1953125 C0.3046875 24.1853125 0.3046875 25.1753125 0.3046875 26.1953125 C7.2346875 26.6903125 7.2346875 26.6903125 14.3046875 27.1953125 C12.6468406 31.3835573 12.6468406 31.3835573 10.3046875 33.1953125 C5.68353808 33.95762487 -0.30821749 34.82265448 -4.35986328 32.06054688 C-6.31549494 29.3290979 -6.06727008 27.179131 -6.05859375 23.84765625 C-6.05794922 22.60306641 -6.05730469 21.35847656 -6.05664062 20.07617188 C-6.04052734 18.77486328 -6.02441406 17.47355469 -6.0078125 16.1328125 C-6.01103516 14.82763672 -6.01425781 13.52246094 -6.01757812 12.17773438 C-5.94992866 0.31447826 -5.94992866 0.31447826 0 0 Z " fill="#FEFCFA" transform="translate(34.6953125,26.8046875)"/>
<path d="M0 0 C0.74185547 -0.020625 1.48371094 -0.04125 2.24804688 -0.0625 C4.40234375 -0.078125 4.40234375 -0.078125 8.0625 0.25 C8.7225 1.24 9.3825 2.23 10.0625 3.25 C7.47846392 5.78835868 6.30181642 6.24485632 2.609375 6.32421875 C1.35640625 6.19660156 0.1034375 6.06898437 -1.1875 5.9375 C-2.45078125 5.81761719 -3.7140625 5.69773437 -5.015625 5.57421875 C-6.46195313 5.41373047 -6.46195313 5.41373047 -7.9375 5.25 C-8.5 3.3125 -8.5 3.3125 -8.9375 1.25 C-6.88735387 -0.80014613 -2.80865412 0.01942025 0 0 Z " fill="#F6B260" transform="translate(42.9375,48.75)"/>
<path d="M0 0 C1.48831242 0.00667405 2.97660807 0.01863442 4.46484375 0.03515625 C5.22345703 0.03966797 5.98207031 0.04417969 6.76367188 0.04882812 C8.64326246 0.06064945 10.52281274 0.07858547 12.40234375 0.09765625 C12.40234375 1.41765625 12.40234375 2.73765625 12.40234375 4.09765625 C11.40234375 5.09765625 11.40234375 5.09765625 8.0234375 5.1953125 C6.62887298 5.18863994 5.23432632 5.17668157 3.83984375 5.16015625 C3.12892578 5.15564453 2.41800781 5.15113281 1.68554688 5.14648438 C-0.07555638 5.13466489 -1.83661661 5.11672888 -3.59765625 5.09765625 C-4.16015625 3.16015625 -4.16015625 3.16015625 -4.59765625 1.09765625 C-3.59765625 0.09765625 -3.59765625 0.09765625 0 0 Z " fill="#F6B15F" transform="translate(38.59765625,39.90234375)"/>
<path d="M0 0 C0.99 0.33 1.98 0.66 3 1 C2.41861767 4.22211891 1.49498087 5.93667741 -0.8125 8.25 C-1.31394531 8.77078125 -1.81539062 9.2915625 -2.33203125 9.828125 C-4 11 -4 11 -8 11 C-6.52670958 5.99081256 -3.72484762 3.48192278 0 0 Z " fill="#FEF9F4" transform="translate(56,51)"/>
<path d="M0 0 C2.62187494 1.04874998 3.79371361 1.64931313 5.25 4.125 C5.4975 4.74375 5.745 5.3625 6 6 C4.02 6 2.04 6 0 6 C0 4.02 0 2.04 0 0 Z " fill="#FEFAF6" transform="translate(50,27)"/>
<path d="M0 0 C1.65 0.33 3.3 0.66 5 1 C5 2.32 5 3.64 5 5 C4.34 5 3.68 5 3 5 C2.67 5.66 2.34 6.32 2 7 C1.67 6.01 1.34 5.02 1 4 C0.34 3.67 -0.32 3.34 -1 3 C-0.67 2.01 -0.34 1.02 0 0 Z " fill="#F9CC96" transform="translate(57,48)"/>
<path d="M0 0 C0.66 0.33 1.32 0.66 2 1 C1.34 2.98 0.68 4.96 0 7 C-0.66 7 -1.32 7 -2 7 C-2 5.02 -2 3.04 -2 1 C-1.34 0.67 -0.68 0.34 0 0 Z " fill="#F8BE79" transform="translate(49,26)"/>
</svg>
