<svg width="38" height="38" viewBox="0 0 38 38" fill="none" xmlns="http://www.w3.org/2000/svg">
<path d="M35.1012 22.9566C31.2368 21.9591 27.9978 20.0252 26.5376 19.3747C24.6453 18.5336 23.5567 19.2125 19.1779 20.1864C14.7991 21.1603 12.9097 21.2696 12.9097 21.2696C12.2807 22.3322 13.0928 24.0634 14.5453 24.5174C15.9979 24.9714 21.3349 24.4644 22.7226 24.247C23.3927 24.1417 23.4799 24.9505 22.686 25.7511C21.8362 26.6095 19.673 27.3292 18.0483 27.8116C15.6973 28.5106 12.3642 27.4937 12.3642 27.4937C12.3642 27.4937 7.73633 24.9295 4.73277 24.2455C1.72921 23.5615 2.00675 26.14 2.00675 26.14C2.00675 26.14 7.6177 29.8032 9.36645 30.7411C11.1152 31.679 13.7976 34.171 16.1795 33.9907C18.5613 33.8104 27.1103 31.58 28.9908 31.8254C29.8257 31.9358 31.1277 32.2739 32.354 32.5675C32.3884 32.5753 32.4224 32.5841 32.4569 32.5918C32.5571 32.6296 32.6626 32.6512 32.7695 32.6558C33.1357 32.6558 33.4422 32.4549 33.6293 32.168C33.6718 32.0874 33.7139 31.9961 33.756 31.9071C34.6421 30.0343 35.5428 26.306 35.9697 24.3971C36.0394 24.0907 35.9877 23.769 35.8256 23.5002C35.6636 23.2313 35.4038 23.0364 35.1012 22.9566Z" fill="#3060ED"/>
<path d="M13.3253 7.49609V4.5575C13.3475 4.41161 13.281 4.26572 13.1034 4.14068C12.7927 3.95311 12.3044 3.95311 11.9936 4.14068L4.22533 9.62188C4.06996 9.72609 3.98118 9.87198 4.00338 9.99702C3.98118 10.1429 4.06996 10.268 4.22533 10.3722L11.9492 15.8117C12.2378 15.9784 12.7705 16.0618 13.1034 15.8325C13.281 15.7283 13.3475 15.6241 13.3253 15.4782V12.498C18.4524 12.498 23.0912 14.8738 24.0234 18C24.6449 17.083 25 16.0826 25 14.9989C25 10.8723 19.7619 7.49609 13.3253 7.49609Z" fill="#F37B24"/>
</svg>
