<svg width="38" height="38" viewBox="0 0 38 38" fill="none" xmlns="http://www.w3.org/2000/svg">
<path d="M35.1012 22.9566C31.2368 21.9591 27.9978 20.0252 26.5376 19.3747C24.6453 18.5336 23.5567 19.2125 19.1779 20.1864C14.7991 21.1603 12.9097 21.2696 12.9097 21.2696C12.2807 22.3322 13.0928 24.0634 14.5453 24.5174C15.9979 24.9714 21.3349 24.4644 22.7226 24.247C23.3927 24.1417 23.4799 24.9505 22.686 25.7511C21.8362 26.6095 19.673 27.3292 18.0483 27.8116C15.6973 28.5106 12.3642 27.4937 12.3642 27.4937C12.3642 27.4937 7.73633 24.9295 4.73277 24.2455C1.72921 23.5615 2.00675 26.14 2.00675 26.14C2.00675 26.14 7.6177 29.8032 9.36645 30.7411C11.1152 31.679 13.7976 34.171 16.1795 33.9907C18.5613 33.8104 27.1103 31.58 28.9908 31.8254C29.8257 31.9358 31.1277 32.2739 32.354 32.5675C32.3884 32.5753 32.4224 32.5841 32.4569 32.5918C32.5571 32.6296 32.6626 32.6512 32.7695 32.6558C33.1357 32.6558 33.4422 32.4549 33.6293 32.168C33.6718 32.0874 33.7139 31.9961 33.756 31.9071C34.6421 30.0343 35.5428 26.306 35.9697 24.3971C36.0394 24.0907 35.9877 23.769 35.8256 23.5002C35.6636 23.2313 35.4038 23.0364 35.1012 22.9566Z" fill="#3060ED"/>
<path d="M20.7981 8.30489H6.63309C6.06509 8.30489 5.52034 8.07823 5.1186 7.67473C4.71686 7.27124 4.49101 6.72395 4.49072 6.15318C4.49067 5.87044 4.54605 5.59045 4.6537 5.32922C4.76134 5.06799 4.91914 4.83062 5.11808 4.63067C5.31702 4.43073 5.55321 4.27212 5.81316 4.16391C6.0731 4.0557 6.35172 4 6.63309 4H20.7981C21.0796 3.99981 21.3584 4.05536 21.6186 4.16348C21.8787 4.2716 22.1151 4.43017 22.3142 4.63013C22.5133 4.83009 22.6713 5.06752 22.7791 5.32885C22.8869 5.59019 22.9423 5.8703 22.9423 6.15318C22.9421 6.43594 22.8865 6.71589 22.7787 6.97705C22.6708 7.23822 22.5128 7.47547 22.3137 7.67528C22.1146 7.87508 21.8783 8.03352 21.6182 8.14155C21.3582 8.24958 21.0795 8.30508 20.7981 8.30489Z" fill="#F37B24"/>
<path d="M20.7981 16.0588H6.63309V16.0599C6.35174 16.06 6.07313 16.0043 5.81318 15.8962C5.55324 15.788 5.31705 15.6294 5.1181 15.4295C4.91915 15.2296 4.76135 14.9922 4.6537 14.731C4.54606 14.4698 4.49067 14.1899 4.49072 13.9071C4.49067 13.6244 4.54605 13.3444 4.6537 13.0832C4.76134 12.8219 4.91914 12.5846 5.11808 12.3846C5.31702 12.1847 5.55321 12.0261 5.81316 11.9179C6.0731 11.8096 6.35172 11.7539 6.63309 11.7539H20.7981C21.0841 11.7464 21.3687 11.7965 21.6352 11.9013C21.9016 12.0061 22.1444 12.1635 22.3493 12.3641C22.5543 12.5647 22.7172 12.8045 22.8284 13.0694C22.9396 13.3343 22.9969 13.6189 22.9969 13.9064C22.9969 14.1939 22.9396 14.4785 22.8284 14.7434C22.7172 15.0082 22.5543 15.2481 22.3493 15.4487C22.1444 15.6493 21.9016 15.8067 21.6352 15.9114C21.3687 16.0162 21.0841 16.0663 20.7981 16.0588Z" fill="#F37B24"/>
</svg>
